/* XPM */
static char * gmanedit_xpm[] = {
"32 32 265 2",
"  	c None",
". 	c #102C45",
"+ 	c #101B25",
"@ 	c #131A21",
"# 	c #1F3E5A",
"$ 	c #0F273D",
"% 	c #13171B",
"& 	c #373736",
"* 	c #2D2D2D",
"= 	c #272625",
"- 	c #0F2335",
"; 	c #0A243C",
"> 	c #282C30",
", 	c #2F2F2F",
"' 	c #424242",
") 	c #21201F",
"! 	c #1E3040",
"~ 	c #133351",
"{ 	c #0C0F14",
"] 	c #272727",
"^ 	c #111111",
"/ 	c #742755",
"( 	c #912667",
"_ 	c #B82E7E",
": 	c #E32FA6",
"< 	c #902463",
"[ 	c #0B2740",
"} 	c #14426D",
"| 	c #0B1928",
"1 	c #0D0D0D",
"2 	c #3C3C3C",
"3 	c #211219",
"4 	c #8B3B62",
"5 	c #9B266D",
"6 	c #D92E9D",
"7 	c #DF31A0",
"8 	c #381C3A",
"9 	c #122D45",
"0 	c #181819",
"a 	c #1B1B1B",
"b 	c #292929",
"c 	c #594D4F",
"d 	c #8F2F66",
"e 	c #CE2C94",
"f 	c #D72E9B",
"g 	c #A12776",
"h 	c #CA3291",
"i 	c #9A236E",
"j 	c #123A5F",
"k 	c #1B4A74",
"l 	c #16202A",
"m 	c #1C1C1B",
"n 	c #2A2A2A",
"o 	c #514342",
"p 	c #923566",
"q 	c #D42F98",
"r 	c #E0359D",
"s 	c #A42C81",
"t 	c #612B7C",
"u 	c #2E2897",
"v 	c #2B2DC5",
"w 	c #5F2493",
"x 	c #DD2EA1",
"y 	c #291D2D",
"z 	c #0E304F",
"A 	c #070809",
"B 	c #0B0B0B",
"C 	c #362F2D",
"D 	c #822A61",
"E 	c #D73099",
"F 	c #BF2A8B",
"G 	c #68287C",
"H 	c #2B299D",
"I 	c #2F2FE3",
"J 	c #2A2ACB",
"K 	c #AD2D7C",
"L 	c #8B1E63",
"M 	c #1D4165",
"N 	c #131C30",
"O 	c #101010",
"P 	c #090806",
"Q 	c #56253E",
"R 	c #BF298A",
"S 	c #E22FA5",
"T 	c #B92A8D",
"U 	c #5A2F7E",
"V 	c #3131B9",
"W 	c #2F2FE1",
"X 	c #552B87",
"Y 	c #E230A4",
"Z 	c #DF2EA3",
"` 	c #1E2636",
" .	c #234360",
"..	c #430F30",
"+.	c #2A1A25",
"@.	c #9B256E",
"#.	c #C43089",
"$.	c #5B2E7A",
"%.	c #2B2BC1",
"&.	c #2E2EC2",
"*.	c #B72C86",
"=.	c #742252",
"-.	c #82286B",
";.	c #8A245C",
">.	c #7A206F",
",.	c #312E9D",
"'.	c #6C2480",
").	c #C02D88",
"!.	c #163752",
"~.	c #46426E",
"{.	c #A32673",
"].	c #D12D96",
"^.	c #D32C9A",
"/.	c #28268E",
"(.	c #3127A1",
"_.	c #DA2F9E",
":.	c #391C36",
"<.	c #B02D80",
"[.	c #952962",
"}.	c #68286C",
"|.	c #2D2DD3",
"1.	c #9A2871",
"2.	c #8F2265",
"3.	c #1D4A71",
"4.	c #5E407D",
"5.	c #972567",
"6.	c #DC2F9F",
"7.	c #BD288A",
"8.	c #2B2AB4",
"9.	c #51296C",
"0.	c #D52F99",
"a.	c #202C43",
"b.	c #3C6B94",
"c.	c #9F2E6F",
"d.	c #A72C72",
"e.	c #512A7F",
"f.	c #22258E",
"g.	c #D23293",
"h.	c #531845",
"i.	c #743C82",
"j.	c #792051",
"k.	c #AA2791",
"l.	c #2E2EDD",
"m.	c #3033D7",
"n.	c #8A2669",
"o.	c #AC2779",
"p.	c #133C61",
"q.	c #2C456F",
"r.	c #992D64",
"s.	c #B12C79",
"t.	c #D52E9A",
"u.	c #3A30AA",
"v.	c #582386",
"w.	c #D82E9D",
"x.	c #192E48",
"y.	c #76376B",
"z.	c #7D1F58",
"A.	c #74308C",
"B.	c #3B2BAD",
"C.	c #DD2FA0",
"D.	c #521D3E",
"E.	c #36496F",
"F.	c #8C1D66",
"G.	c #DA309C",
"H.	c #B52E86",
"I.	c #2E2FCD",
"J.	c #2D2DCF",
"K.	c #C02E8E",
"L.	c #982669",
"M.	c #274C6F",
"N.	c #742D5A",
"O.	c #902663",
"P.	c #4D319D",
"Q.	c #95339A",
"R.	c #E0349D",
"S.	c #1A2945",
"T.	c #46416D",
"U.	c #7E2055",
"V.	c #E030A2",
"W.	c #902D86",
"X.	c #2D29BD",
"Y.	c #8B32A2",
"Z.	c #532044",
"`.	c #932A61",
" +	c #B42880",
".+	c #D02E95",
"++	c #2B2BCF",
"@+	c #2F2FE0",
"#+	c #2928BD",
"$+	c #462B90",
"%+	c #832A7D",
"&+	c #CB2D92",
"*+	c #922169",
"=+	c #2A5D8A",
"-+	c #7C3676",
";+	c #851F5B",
">+	c #4E3295",
",+	c #2F2FDF",
"'+	c #22268B",
")+	c #491B60",
"!+	c #A82679",
"~+	c #E231A3",
"{+	c #D12D97",
"]+	c #213A5B",
"^+	c #455382",
"/+	c #A7306D",
"(+	c #DA309D",
"_+	c #932A87",
":+	c #2E2EE0",
"<+	c #2E2FD6",
"[+	c #25228C",
"}+	c #551F4D",
"|+	c #B52B7E",
"1+	c #E132A1",
"2+	c #B92885",
"3+	c #912662",
"4+	c #602A53",
"5+	c #3F264B",
"6+	c #153E5F",
"7+	c #9F2D79",
"8+	c #A9306F",
"9+	c #CE2E94",
"0+	c #2E2BB2",
"a+	c #272898",
"b+	c #5E195C",
"c+	c #C3288E",
"d+	c #E02FA3",
"e+	c #B22682",
"f+	c #651F4C",
"g+	c #272A3A",
"h+	c #103351",
"i+	c #194F7F",
"j+	c #624476",
"k+	c #9A266B",
"l+	c #512470",
"m+	c #4B2069",
"n+	c #B52A7D",
"o+	c #D72D9D",
"p+	c #842261",
"q+	c #37273E",
"r+	c #123757",
"s+	c #344F82",
"t+	c #A82974",
"u+	c #C82E8D",
"v+	c #D02E96",
"w+	c #CD2B95",
"x+	c #641B4F",
"y+	c #1B304E",
"z+	c #992C79",
"A+	c #912761",
"B+	c #D53197",
"C+	c #6C2455",
"D+	c #1C3552",
"E+	c #64397C",
"F+	c #802652",
"G+	c #D72C9D",
"H+	c #712159",
"I+	c #1B3353",
"J+	c #3F5187",
"K+	c #99226D",
"L+	c #7F2555",
"M+	c #31324F",
"N+	c #3A6E9A",
"O+	c #33526C",
"P+	c #2D5374",
"                                                                ",
"                                . + @ #                         ",
"                            $ % & *   = -                       ",
"                        ; > , '         ) !                     ",
"                    ~ { ] ^       / ( _ : < [                   ",
"                } | 1 2   3 4 5 6 : : : : 7 8                   ",
"              9 0 a b c d e : : : : f g h : i j                 ",
"          k l m n o p q : : : r s t u v w : x y                 ",
"        z A B C D E : : : F G H I I I I J K : L M               ",
"      N O P Q R : : S T U V W I I I I I I X Y Z `               ",
"     ...+.@.Y : : #.$.%.I I I I I I I I I &.*.: =.              ",
"      -.;.: : : >.,.I I I I I I I I I I I I '.: ).!.            ",
"      ~.{.].: ^./.I I I I I I I I I I I I I (._.: :.            ",
"        <.[.: : }.W I I I I I I I I I I I I |.1.: 2.3.          ",
"        4.5.6.: 7.8.I I I I I I I I I I I I I 9.: 0.a.          ",
"        b.c.d.: : e.I I I I I I I I I I I I I f.g.: h.          ",
"          i.j.: : k.l.I I I I I I I I I I I I m.n.: o.p.        ",
"          q.r.s.: t.u.I I I I I I I I I I I I I v.: w.x.        ",
"            y.z.: : A.I I I I I I I I I I I I I B.C.: D.        ",
"            E.F.G.: H.I.I I I I I I I I I I I I J.K.: L.M.      ",
"              N.O.: Z P.I I I I I I I I I I I I I Q.: R.S.      ",
"              T.U.V.: W.I I I I I I I I I I I I X.Y.: : Z.      ",
"                `. +: .+++I I I I I I I @+#+$+%+&+: : : *+=+    ",
"                -+;+: : >+I I I I I ,+'+)+!+~+: : : : : {+]+    ",
"                ^+/+(+: _+:+I I <+[+}+|+: : : : 1+2+3+4+5+6+    ",
"                  7+8+: 9+0+W a+b+c+: : : d+e+f+g+h+i+          ",
"                  j+k+: : l+m+n+: : : o+p+q+r+                  ",
"                  s+t+u+: v+: : : w+x+y+                        ",
"                    z+A+: : : B+C+D+                            ",
"                    E+F+: G+H+I+                                ",
"                    J+K+L+M+N+                                  ",
"                      O+P+                                      "};
