/* XPM */
static char *songwrite[] = {
/* columns rows colors chars-per-pixel */
"32 32 211 2",
"   c #000000",
".  c #070309",
"X  c #0A0201",
"o  c #0C0807",
"O  c #0C0B0B",
"+  c #140300",
"@  c #110F0F",
"#  c #180000",
"$  c #1F0800",
"%  c #141111",
"&  c #1A1616",
"*  c #240000",
"=  c #220900",
"-  c #2D0000",
";  c #2A0B00",
":  c #281100",
">  c #360000",
",  c #340E00",
"<  c #3A0000",
"1  c #311000",
"2  c #391701",
"3  c #311C16",
"4  c #391E14",
"5  c #272727",
"6  c #2C2828",
"7  c #37302D",
"8  c #3C3333",
"9  c #3A3A3A",
"0  c #151540",
"q  c #1F1F5B",
"w  c #221F57",
"e  c #2B1F5C",
"r  c #24246A",
"t  c #2D2870",
"y  c #2A2A7D",
"u  c #430000",
"i  c #4B0000",
"p  c #431005",
"a  c #4C1400",
"s  c #550000",
"d  c #55091A",
"f  c #501501",
"g  c #5C1901",
"h  c #42153F",
"j  c #532001",
"k  c #5A2502",
"l  c #582918",
"z  c #463B3B",
"x  c #641A02",
"c  c #6A1C01",
"v  c #731E01",
"b  c #652602",
"n  c #602802",
"m  c #6B270F",
"M  c #6B2C02",
"N  c #722D02",
"B  c #7C2101",
"V  c #792B02",
"C  c #7E341C",
"Z  c #4F1F5B",
"A  c #7F442E",
"S  c #434343",
"D  c #594C4C",
"F  c #69544E",
"G  c #7F4241",
"H  c #65427C",
"J  c #676767",
"K  c #736565",
"L  c gray50",
"P  c #2D2D85",
"I  c #2E2E89",
"U  c #35359B",
"Y  c #3D3DB4",
"T  c #4239A7",
"R  c #5D4390",
"E  c #4441B8",
"W  c #4943B9",
"Q  c #60438B",
"!  c #4242C2",
"~  c #4844C2",
"^  c #4747D1",
"/  c #4848D3",
"(  c #4A4ADA",
")  c #4D4DE1",
"_  c #2BBE2B",
"`  c #3BD73B",
"'  c #64DD64",
"]  c #9F1F1F",
"[  c #832401",
"{  c #802B02",
"}  c #8C2601",
"|  c #8D2C02",
" . c #843602",
".. c #883103",
"X. c #963604",
"o. c #953D03",
"O. c #8C2727",
"+. c #BA332F",
"@. c #9C4107",
"#. c #954F1F",
"$. c #AA4104",
"%. c #A1471A",
"&. c #B14904",
"*. c #BB4D04",
"=. c #BF520A",
"-. c #AF683E",
";. c #B86025",
":. c #BE6529",
">. c #BE6C3D",
",. c #835548",
"<. c #9D5A45",
"1. c #9D5858",
"2. c #9F695B",
"3. c #8D7979",
"4. c #9B6B60",
"5. c #9A6B6B",
"6. c #9B7974",
"7. c #9D7D79",
"8. c #A26555",
"9. c #B26E47",
"0. c #BA794D",
"q. c #B57B55",
"w. c #B87B52",
"e. c #A07C76",
"r. c #BA7E7E",
"t. c #D43434",
"y. c #C45004",
"u. c #CB5505",
"i. c #D65905",
"p. c #D55B0A",
"a. c #DB5B05",
"s. c #D95D09",
"d. c #CA611D",
"f. c #D36011",
"g. c #D7671B",
"h. c #D86314",
"j. c #D97316",
"k. c #C36A2C",
"l. c #C8723B",
"z. c #D86B22",
"x. c #D87D3F",
"c. c #E45E05",
"v. c #E76005",
"b. c #C17A4B",
"n. c #CA7B41",
"m. c #DB7F42",
"M. c #DA7B4A",
"N. c #D97460",
"B. c #FF5555",
"V. c #A5817B",
"C. c #AA827B",
"Z. c #D2AC2F",
"A. c #E19719",
"S. c #C69C4E",
"D. c #DD9E5F",
"F. c #D6A27F",
"G. c #E29059",
"H. c #E39B6A",
"J. c #E5AB49",
"K. c #818181",
"L. c #958080",
"P. c #948D8D",
"I. c #998383",
"U. c gray62",
"Y. c #A18A8A",
"T. c #BC8C8C",
"R. c #BB9881",
"E. c #B29594",
"W. c #B39B9B",
"Q. c #BB9C9A",
"!. c #AAA89A",
"~. c #B1A29B",
"^. c gray64",
"/. c #AFA1A1",
"(. c #B0AFAF",
"). c #BBACAC",
"_. c #BEB4AD",
"`. c #B4B2B2",
"'. c #BEB4B4",
"]. c #B7C493",
"[. c #CE9E86",
"{. c #CA9C8D",
"}. c #C2A6A6",
"|. c #C5A9A9",
" X c #CCAFAF",
".X c #CAB4A5",
"XX c #CDB2B1",
"oX c #C9BCBC",
"OX c #DFBBA2",
"+X c #D5B7B7",
"@X c #D6B9B9",
"#X c #DDB9B5",
"$X c #DBBBBA",
"%X c #E08E84",
"&X c #E1B49D",
"*X c #C7C1BD",
"=X c #D1D3BA",
"-X c #C4C3C3",
";X c gray79",
":X c gray83",
">X c #DFD8D3",
",X c gray86",
"<X c #E7C5C4",
"1X c #EDCCCC",
"2X c #FAD6D6",
"3X c #FDD9D9",
"4X c #E1E1E1",
"5X c #EEEEEE",
"6X c #F1F1F1",
"7X c #FEFEFE",
"8X c None",
/* pixels */
"8X8X8X8X8X    8X8X8X8X8X8X8X8X8X8X8X8X8X8X8X8X8X8X8X8X8X8X8X8X8X",
"8X8X8X8X8X      8X8X8X8X8X8X8X8X8X8X8X8X8X8X8X8X8X8X8X8X8X8X8X8X",
"8X8X8X8X          8X8X8X8X8X8X8X8X8X8X8X8X8X8X8X8X8X8X8X8X8X8X8X",
"8X8X8X8X      . O   8X8X8X8X8X8X8X8X8X8X8X8X8X8X8X8X8X8X8X8X8X8X",
"8X8X8X8X  O K |. XI.          8X8X8X8X8X8X8X8X8X8X8X8X8X8X8X8X8X",
"8X8X8X8X@ L.$X'.@X(.5         8X8X8X8X8X8X8X8X8X8X8X8X8X8X8X8X8X",
"8X8X8X  . V.I.'._.;XL 8X8X    8X8X8X8X8X8X8X8X8X8X8X8X8X8X8X8X8X",
"8X8X    . W.3X/.W.W.O 8X8X8X8X8X8X8X8X8X8X8X8X8X8X8X8X8X8X8X8X8X",
"8X8X    & Y.r.O.5.}.  8X8X8X8X8X8X8X8X8X8X8X8X8X8X8X8X8X8X8X8X8X",
"8X8X8X8X  D T.] 1.K 8X8X8X8X8X8X8X8X8X8X8X8X8X8X8X8X8X8X8X8X8X8X",
"8X8X8X8X8X  P.).-X,XS 8X8X8X8X8X8X8X8X8X8X8X8X8X8X8X8X8X8X8X8X8X",
"8X8X8X8X9 (.7X7X7X7X:XU.6 8X8X8X8X8X8X8X8X8X8X8X8X8X8X8X8X8X8X8X",
"8X8X8X8X^.7X4X7X7X7X;X7X,XJ O 8X8X8X8X8X8X8X8X8X8X8Xf v c a + 8X",
"8X8X8XK.6X*X~.>X7X7X*X6X7X*X|.3.D %   @ % z 8 + g a v } a g B , ",
"8X8X ._.7Xl.v.a.b..XC.#.:.-.#X3X2X1X+X Xe.7.6.[ B [ g c c a B c ",
"8X .w.`.~.u.D.Z.J.g.v.h.S.v.y.F V.8.C B v m 8.c g a $   7 4 l , ",
": w.' XX{.v.p.j.A.k.a.v.s.a.y.V [ [ B x f e.$Xo = 8X8X8X8X8X8X8X",
"M OX_ 1X<Xd.c.u.N = 1 V | } B B f ; ; X   6 z 8X8X8X8X8X8X8X8X8X",
" .=X` !.$X#X#.1.~.4 ; ; V X.$.$.X   8X8X8X8X8X8X8X8X8X8X8X8X8X8X",
"n n.].q.p 4.2XE.,.= = g M.+.[.*.  8X8X8X8X8X8X8X8X8X8X8X8X8X8X8X",
": a.v.y.c $.9.l.u.b N i.&Xt.N.o.8X8X8X8X8X8X8X8X8X8X8X8X8X8X8X8X",
"X $.v.y...G.%Xh.c.v.v.v.m.>.G q 8X    8X8X8X8X8X8X8X8X8X8X8X8X8X",
"8Xk y.v.c.H.B.x.c.%.H Q R W ) / I   + u i # 8X8X8X8X8X8X8X8X8X8X",
"8X8X2 @.y.z.F.;.o.o I Y ( ) ) ) ( t i s i * 8X8X8X8X8X8X8X8X8X8X",
"8X    U / E ~ U   8X8X8Xy Y E ) ) Z s s > 8X8X8X8X8X8X8X8X8X8X8X",
"*   0 ( ) ) ~ r 8X8X8X8X8X8Xq I Y d s < 8X8X8X8X8X8X8X8X8X8X8X8X",
"u u e ) ) ! r 8X8X8X8X8X8X8X8X8X. - < X 8X8X8X8X8X8X8X8X8X8X8X8X",
"u s i T ^ P 8X8X8X8X8X8X8X8X8X8X8X8X8X8X8X8X8X8X8X8X8X8X8X8X8X8X",
"* i s h P 8X8X8X8X8X8X8X8X8X8X8X8X8X8X8X8X8X8X8X8X8X8X8X8X8X8X8X",
"8X- u <   8X8X8X8X8X8X8X8X8X8X8X8X8X8X8X8X8X8X8X8X8X8X8X8X8X8X8X",
"8X8X8X8X8X8X8X8X8X8X8X8X8X8X8X8X8X8X8X8X8X8X8X8X8X8X8X8X8X8X8X8X",
"8X8X8X8X8X8X8X8X8X8X8X8X8X8X8X8X8X8X8X8X8X8X8X8X8X8X8X8X8X8X8X8X"
};
